<svg id="Layer_1" data-name="Layer 1" xmlns="http://www.w3.org/2000/svg" viewBox="0 0 40 60"><defs><style>.cls-1{fill:#46763A;stroke:#fff; stroke-width:1}.cls-2{fill:#fff;}</style></defs><title>FP_MapPin_MediumGreen</title><path class="cls-1" d="M20,0A20.26,20.26,0,0,0,0,20.46C0,25.83,4.29,31.7,8.83,37.93,13.88,44.85,19.1,52,19.1,59.08a.9.9,0,1,0,1.8,0c0-7.08,5.22-14.23,10.27-21.15C35.71,31.7,40,25.83,40,20.46A20.26,20.26,0,0,0,20,0Z"/><path class="cls-2" d="M20.88,5.52c-1.08,2.24-4,7.1-1.72,13.94C21.58,27,23.45,31.21,18,37.73c-.59.7-2.08,2.13-3,2.13A8.84,8.84,0,0,0,17.11,38c5.48-6.53,2.11-11.45-.3-18.94-2.09-6.19,2-10.91,4.08-13.54Z"/><path class="cls-2" d="M7.15,29.73s.37-.42,1.09-1.25a37.54,37.54,0,0,1,9.19-7.42c9.65-5.82,11.61,1.78,1.16,2,8.82.65,10.45-3.43,10.66-5.45s-2.42-4.75-8.45-1.55C14.41,19.49,9.69,26.18,8.41,27.88a20.54,20.54,0,0,0-1.26,1.85Z"/><path class="cls-2" d="M20,22c1.92,6,2.78,9.95-2,15.68-.59.7-2.08,2.13-3,2.13A8.84,8.84,0,0,0,17.11,38c4.71-5.61,2.88-10,.74-15.93-.35-1,1.89-.84,2.15,0Z"/></svg>